<svg width="48" height="48" viewBox="0 0 48 48" fill="none" xmlns="http://www.w3.org/2000/svg">
<path d="M36.4147 22.6828L14.2133 0.5428C13.4859 -0.182166 12.3082 -0.180947 11.5821 0.54655C10.8564 1.27395 10.8583 2.45229 11.5858 3.17782L32.4657 24.0001L11.5851 44.8222C10.8577 45.5479 10.8558 46.7255 11.5813 47.453C11.754 47.6266 11.9594 47.7643 12.1856 47.8582C12.4117 47.952 12.6543 48.0002 12.8991 48C13.1431 48.0003 13.3848 47.9525 13.6103 47.8592C13.8358 47.766 14.0407 47.6292 14.2132 47.4567L36.4147 25.3173C36.7651 24.9687 36.9617 24.4943 36.9617 24.0001C36.9617 23.5058 36.7645 23.032 36.4147 22.6828Z" fill="#F47F19"/>
</svg>
