<svg width="48" height="48" viewBox="0 0 48 48" fill="none" xmlns="http://www.w3.org/2000/svg">
<g clip-path="url(#clip0_14_252)">
<path d="M11.5853 25.3172L33.7867 47.4572C34.5141 48.1822 35.6918 48.1809 36.4179 47.4534C37.1436 46.726 37.1417 45.5477 36.4142 44.8222L15.5343 23.9999L36.4149 3.17775C37.1424 2.45213 37.1442 1.27454 36.4187 0.547043C36.246 0.373444 36.0406 0.235733 35.8144 0.141849C35.5883 0.0479621 35.3457 -0.000240467 35.1009 1.50961e-05C34.8569 -0.000290101 34.6152 0.0475386 34.3897 0.140762C34.1642 0.233986 33.9593 0.370773 33.7868 0.543293L11.5853 22.6827C11.2349 23.0313 11.0383 23.5057 11.0383 23.9999C11.0383 24.4942 11.2355 24.968 11.5853 25.3172Z" fill="#F47F19"/>
</g>
<defs>
<clipPath id="clip0_14_252">
<rect width="48" height="48" fill="white" transform="translate(48 48) rotate(-180)"/>
</clipPath>
</defs>
</svg>
