<svg width="34" height="34" viewBox="0 0 34 34" fill="none" xmlns="http://www.w3.org/2000/svg">
<g clip-path="url(#clip0_19_334)">
<path d="M20.9069 28.8015L20.9069 24.0914C20.9069 22.4092 19.1406 21.3158 17.7108 22.0728C16.7014 22.5774 15.4398 22.1569 14.8511 21.2317C13.5894 19.1289 13.5053 14.6712 14.8511 12.4843C15.3558 11.475 16.7015 11.1386 17.7108 11.6433C19.1406 12.4002 20.9069 11.3068 20.9069 9.62465L20.9069 4.91456C20.8228 3.65293 19.8135 2.64362 18.636 2.64362L15.4398 2.64362C12.1596 2.72773 9.46811 8.95178 9.46811 16.858C9.46811 24.7642 12.0754 31.0724 15.4398 31.0724L18.636 31.0724C19.8976 30.9883 20.9069 29.979 20.9069 28.8015Z" fill="white"/>
</g>
<defs>
<clipPath id="clip0_19_334">
<rect width="23.8658" height="23.8658" fill="white" transform="translate(16.8756) rotate(45)"/>
</clipPath>
</defs>
</svg>
