<svg width="32" height="18" viewBox="0 0 32 18" fill="none" xmlns="http://www.w3.org/2000/svg">
<g clip-path="url(#clip0_19_328)">
<path d="M32.005 16.4408C31.9658 16.3564 31.9293 16.2864 31.8954 16.2303C31.334 15.2193 30.2614 13.9784 28.678 12.5073L28.6445 12.4736L28.6278 12.4571L28.6108 12.4401H28.5939C27.8752 11.7551 27.4202 11.2945 27.2296 11.0587C26.8809 10.6094 26.8028 10.1547 26.9934 9.694C27.128 9.3459 27.6338 8.61076 28.5094 7.48758C28.97 6.89234 29.3348 6.41527 29.6042 6.05584C31.5471 3.47283 32.3895 1.82226 32.1311 1.10347L32.0307 0.935493C31.9633 0.834368 31.7892 0.741856 31.5088 0.657487C31.2277 0.573294 30.8685 0.559371 30.4304 0.615479L25.5792 0.648991C25.5006 0.621143 25.3884 0.623739 25.2422 0.657487L25.0231 0.708168L24.9387 0.750353L24.8717 0.801033C24.8155 0.834545 24.7537 0.893486 24.6863 0.977738C24.6192 1.06169 24.5631 1.16022 24.5183 1.2725C23.9901 2.63132 23.3896 3.89468 22.7157 5.06252C22.3001 5.75889 21.9185 6.3624 21.57 6.8734C21.222 7.38422 20.93 7.76058 20.6943 8.00183C20.4583 8.24331 20.2453 8.43677 20.0541 8.58291C19.8631 8.72912 19.7173 8.79089 19.6163 8.76829C19.5152 8.74569 19.4199 8.72327 19.3297 8.70085C19.1726 8.59973 19.0462 8.4622 18.9509 8.28815C18.8552 8.1141 18.7908 7.89504 18.7571 7.63113C18.7236 7.36705 18.7037 7.1399 18.6981 6.94892C18.6928 6.75817 18.6952 6.48837 18.7066 6.14027C18.7183 5.79199 18.7236 5.55635 18.7236 5.4328C18.7236 5.006 18.7319 4.54279 18.7486 4.04307C18.7656 3.54334 18.7793 3.14739 18.7908 2.8557C18.8023 2.56371 18.8076 2.25479 18.8076 1.92911C18.8076 1.60343 18.7878 1.34802 18.7486 1.16264C18.7094 0.977098 18.6503 0.796348 18.5722 0.623562C18.4934 0.449513 18.3781 0.314876 18.2268 0.219296C18.0753 0.123835 17.8868 0.0480791 17.6626 -0.00820662C17.0673 -0.142903 16.3094 -0.215767 15.3883 -0.227095C13.2997 -0.249515 11.9576 -0.114642 11.3624 0.177347C11.1266 0.300716 10.9132 0.469277 10.7224 0.682502C10.5202 0.929652 10.492 1.06453 10.638 1.08671C11.3118 1.18766 11.7889 1.42914 12.0697 1.81093L12.1709 2.01324C12.2496 2.15921 12.3282 2.41762 12.4068 2.78814C12.4853 3.15866 12.536 3.56853 12.5583 4.01752C12.6144 4.83744 12.6144 5.5393 12.5583 6.12316C12.5021 6.70726 12.449 7.16197 12.3983 7.48764C12.3476 7.81332 12.2719 8.07723 12.1709 8.2793C12.0697 8.48143 12.0024 8.60498 11.9686 8.64982C11.9349 8.69466 11.9069 8.72292 11.8846 8.73401C11.7394 8.78995 11.5852 8.81857 11.4297 8.81844C11.2723 8.81844 11.0815 8.73974 10.857 8.58244C10.6325 8.42515 10.3995 8.20909 10.158 7.93392C9.9165 7.65868 9.64416 7.27407 9.34084 6.78C9.03776 6.28594 8.72329 5.70202 8.39762 5.02824L8.12816 4.53961C7.95972 4.22526 7.72962 3.76754 7.43763 3.16686C7.14547 2.56595 6.88722 1.98468 6.66273 1.42318C6.57299 1.18736 6.43818 1.00783 6.25852 0.884282L6.17421 0.833601C6.11816 0.788761 6.02819 0.741148 5.90476 0.690408C5.78014 0.639474 5.65017 0.60278 5.51731 0.581023L0.901825 0.614535C0.430182 0.614535 0.110168 0.721383 -0.0583353 0.934785L-0.125772 1.03573C-0.159461 1.09196 -0.176453 1.18176 -0.176453 1.30536C-0.176453 1.42891 -0.142764 1.58054 -0.0753272 1.76007C0.598449 3.34362 1.33117 4.87083 2.12282 6.34193C2.91448 7.81303 3.60242 8.99804 4.18622 9.89589C4.77014 10.7944 5.36533 11.6424 5.97179 12.4395C6.57824 13.2369 6.97968 13.7479 7.17609 13.9724C7.37273 14.1973 7.52719 14.3654 7.63947 14.4777L8.06067 14.8819C8.33018 15.1515 8.72595 15.4743 9.24816 15.8504C9.77048 16.2268 10.3487 16.5973 10.9832 16.9626C11.6178 17.3273 12.3561 17.6249 13.1984 17.855C14.0406 18.0854 14.8604 18.1779 15.6578 18.1333H17.595C17.9878 18.0993 18.2855 17.9758 18.4878 17.7626L18.5548 17.6781C18.5999 17.6111 18.6421 17.507 18.681 17.3668C18.7204 17.2265 18.74 17.0718 18.74 16.9036C18.7285 16.4208 18.7653 15.9857 18.8493 15.5983C18.9332 15.2111 19.0289 14.9191 19.136 14.7224C19.2429 14.526 19.3636 14.3602 19.498 14.2258C19.6326 14.0911 19.7286 14.0095 19.7848 13.9814C19.8408 13.9531 19.8854 13.9339 19.9191 13.9224C20.1886 13.8326 20.5058 13.9196 20.8711 14.1838C21.2362 14.4477 21.5786 14.7735 21.8988 15.1608C22.2189 15.5484 22.6034 15.9833 23.0525 16.4661C23.5019 16.9491 23.8949 17.3081 24.2317 17.5443L24.5684 17.7464C24.7933 17.8813 25.0853 18.0048 25.4447 18.1171C25.8035 18.2293 26.1179 18.2574 26.3878 18.2013L30.6999 18.134C31.1264 18.134 31.4583 18.0634 31.6937 17.9233C31.9296 17.7829 32.0697 17.6283 32.1149 17.4601C32.16 17.2917 32.1624 17.1006 32.1234 16.8871C32.0835 16.674 32.0442 16.525 32.005 16.4408Z" fill="white"/>
</g>
<defs>
<clipPath id="clip0_19_328">
<rect width="32" height="18" fill="white"/>
</clipPath>
</defs>
</svg>
